<?xml version="1.0" encoding="utf-8"?>
<!-- Generator: Adobe Illustrator 27.5.0, SVG Export Plug-In . SVG Version: 6.00 Build 0)  -->
<svg version="1.1" xmlns="http://www.w3.org/2000/svg" xmlns:xlink="http://www.w3.org/1999/xlink" x="0px" y="0px"
	 viewBox="0 0 500 500" style="enable-background:new 0 0 500 500;" xml:space="preserve">
<g id="BACKGROUND">
	<rect style="fill:#FFFFFF;" width="500" height="500"/>
</g>
<g id="OBJECT">
	<g>
		<g>
			
				<line style="fill:none;stroke:#1F2F6D;stroke-width:4;stroke-linecap:round;stroke-linejoin:round;stroke-miterlimit:10;" x1="401.819" y1="410.626" x2="424.276" y2="410.626"/>
			
				<line style="fill:none;stroke:#1F2F6D;stroke-width:4;stroke-linecap:round;stroke-linejoin:round;stroke-miterlimit:10;" x1="435.124" y1="410.626" x2="452.509" y2="410.626"/>
			
				<line style="fill:none;stroke:#1F2F6D;stroke-width:4;stroke-linecap:round;stroke-linejoin:round;stroke-miterlimit:10;" x1="388.989" y1="410.626" x2="70.581" y2="410.626"/>
			
				<line style="fill:none;stroke:#1F2F6D;stroke-width:4;stroke-linecap:round;stroke-linejoin:round;stroke-miterlimit:10;" x1="59.266" y1="410.626" x2="47.491" y2="410.626"/>
		</g>
		<g>
			<g>
				<g>
					<g>
						<path style="fill:none;stroke:#1F2F6D;stroke-width:3;stroke-linecap:round;stroke-linejoin:round;" d="M344.705,105.568
							c-0.276-0.215-0.552-0.43-0.829-0.643"/>
						
							<path style="fill:none;stroke:#1F2F6D;stroke-width:3;stroke-linecap:round;stroke-linejoin:round;stroke-dasharray:4.7803,8.6046;" d="
							M339.271,101.504c-2.461-1.76-4.974-3.451-7.536-5.071"/>
						
							<path style="fill:none;stroke:#1F2F6D;stroke-width:3;stroke-linecap:round;stroke-linejoin:round;stroke-dasharray:1.9121,5.7364,4.7803,8.6046;" d="
							M328.067,94.183c-22.327-13.284-48.184-21.254-75.828-22.167"/>
						<path style="fill:none;stroke:#1F2F6D;stroke-width:3;stroke-linecap:round;stroke-linejoin:round;" d="M247.947,71.931
							c-0.35-0.002-0.7-0.003-1.05-0.003"/>
					</g>
				</g>
				<g>
					<g>
						<path style="fill:none;stroke:#1F2F6D;stroke-width:3;stroke-linecap:round;stroke-linejoin:round;" d="M405.514,220.156
							c-2.955-44.279-24.041-83.595-55.897-110.591"/>
						<g>
							<polygon style="fill:#1F2F6D;" points="411.85,214.829 405.313,217.945 398.531,215.403 405.871,230.902 							"/>
						</g>
					</g>
				</g>
			</g>
			<circle style="fill:#FFE1D9;" cx="244.436" cy="231.229" r="143.865"/>
			<g>
				
					<ellipse transform="matrix(0.7071 -0.7071 0.7071 0.7071 -92.6466 245.6622)" style="fill:#FFD7CC;" cx="250.217" cy="234.665" rx="118.17" ry="118.17"/>
				<path style="fill:#FFD7CC;" d="M455.88,311.69v-2.561c0-1.063-0.861-1.924-1.924-1.924h-5.368v-4.326
					c0-0.65-0.527-1.177-1.176-1.177h-8.819c-0.65,0-1.177,0.527-1.177,1.177v4.326h-5.368c-1.062,0-1.924,0.861-1.924,1.924v2.561
					h-18.129v81.278h62.013V311.69H455.88z M441.862,302.996h2.282c0.65,0,1.176,0.527,1.176,1.176c0,0.65-0.527,1.177-1.176,1.177
					h-2.282c-0.65,0-1.177-0.527-1.177-1.177C440.685,303.523,441.212,302.996,441.862,302.996z"/>
				
					<ellipse transform="matrix(0.9871 -0.1602 0.1602 0.9871 -54.7264 62.3397)" style="fill:#FFD7CC;" cx="359.304" cy="370.614" rx="23.179" ry="23.179"/>
				
					<ellipse transform="matrix(0.3827 -0.9239 0.9239 0.3827 30.1976 560.8632)" style="fill:#FFD7CC;" cx="434.794" cy="257.835" rx="23.179" ry="23.179"/>
				<circle style="fill:#FFD7CC;" cx="74.68" cy="182.918" r="23.179"/>
				
					<ellipse transform="matrix(0.1602 -0.9871 0.9871 0.1602 58.491 258.8169)" style="fill:#FFD7CC;" cx="181.347" cy="95.034" rx="23.179" ry="23.179"/>
				<circle style="fill:#FFD7CC;" cx="131.428" cy="151.896" r="12.184"/>
				
					<ellipse transform="matrix(0.9925 -0.1222 0.1222 0.9925 -34.0354 48.3724)" style="fill:#FFD7CC;" cx="377.4" cy="301.703" rx="15.101" ry="15.101"/>
				<path style="fill:#FFD7CC;" d="M126.022,121.314v-57.12c0-3.053-2.475-5.527-5.527-5.527h-1.812v-2.79
					c0-0.989-0.802-1.79-1.79-1.79h-0.491c-0.989,0-1.79,0.802-1.79,1.79v2.79h-3.485v-2.79c0-0.989-0.801-1.79-1.79-1.79h-0.491
					c-0.989,0-1.79,0.802-1.79,1.79v2.79h-3.485v-2.79c0-0.989-0.801-1.79-1.79-1.79h-0.491c-0.989,0-1.79,0.802-1.79,1.79v2.79
					h-3.485v-2.79c0-0.989-0.802-1.79-1.79-1.79h-0.491c-0.989,0-1.79,0.802-1.79,1.79v2.79h-3.485v-2.79
					c0-0.989-0.802-1.79-1.79-1.79h-0.491c-0.989,0-1.79,0.802-1.79,1.79v2.79h-3.485v-2.79c0-0.989-0.802-1.79-1.79-1.79H78.62
					c-0.989,0-1.79,0.802-1.79,1.79v2.79h-3.485v-2.79c0-0.989-0.801-1.79-1.79-1.79h-0.491c-0.989,0-1.79,0.802-1.79,1.79v2.79
					h-3.485v-2.79c0-0.989-0.802-1.79-1.79-1.79h-0.491c-0.989,0-1.79,0.802-1.79,1.79v2.79h-3.485v-2.79
					c0-0.989-0.802-1.79-1.79-1.79h-0.491c-0.989,0-1.79,0.802-1.79,1.79v2.79h-3.485v-2.79c0-0.989-0.802-1.79-1.79-1.79h-0.491
					c-0.989,0-1.79,0.802-1.79,1.79v2.79h-3.485v-2.79c0-0.989-0.801-1.79-1.79-1.79H40.84c-0.989,0-1.79,0.802-1.79,1.79v2.79
					h-1.813c-3.053,0-5.527,2.475-5.527,5.527v57.12c0,3.053,2.475,5.527,5.527,5.527h83.257
					C123.547,126.841,126.022,124.367,126.022,121.314z"/>
			</g>
			<g>
				<g>
					<g>
						<path style="fill:none;stroke:#1F2F6D;stroke-width:3;stroke-linecap:round;stroke-linejoin:round;" d="M144.964,356.316
							c0.276,0.215,0.552,0.43,0.829,0.643"/>
						
							<path style="fill:none;stroke:#1F2F6D;stroke-width:3;stroke-linecap:round;stroke-linejoin:round;stroke-dasharray:4.7803,8.6046;" d="
							M150.398,360.38c2.461,1.76,4.974,3.451,7.536,5.071"/>
						
							<path style="fill:none;stroke:#1F2F6D;stroke-width:3;stroke-linecap:round;stroke-linejoin:round;stroke-dasharray:1.9121,5.7364,4.7803,8.6046;" d="
							M161.602,367.701c22.327,13.284,48.184,21.254,75.828,22.167"/>
						<path style="fill:none;stroke:#1F2F6D;stroke-width:3;stroke-linecap:round;stroke-linejoin:round;" d="M241.722,389.952
							c0.35,0.002,0.7,0.003,1.05,0.003"/>
					</g>
				</g>
				<g>
					<g>
						<path style="fill:none;stroke:#1F2F6D;stroke-width:3;stroke-linecap:round;stroke-linejoin:round;" d="M84.155,241.727
							c2.955,44.279,24.041,83.595,55.897,110.591"/>
						<g>
							<polygon style="fill:#1F2F6D;" points="77.819,247.055 84.356,243.939 91.138,246.481 83.798,230.982 							"/>
						</g>
					</g>
				</g>
			</g>
			<g>
				<circle style="fill:#1F2F6D;" cx="244.498" cy="231.234" r="118.17"/>
				<circle style="fill:#FFFFFF;stroke:#1F2F6D;stroke-miterlimit:10;" cx="244.498" cy="231.234" r="108.44"/>
				<path style="fill:#A1B3FF;stroke:#1F2F6D;stroke-miterlimit:10;" d="M244.498,231.234l-54.65,93.662
					c-33.268-19.411-53.79-55.145-53.79-93.662c0-0.219,0.001-0.438,0.002-0.658L244.498,231.234z"/>
				<path style="fill:#FF6666;stroke:#1F2F6D;stroke-miterlimit:10;" d="M244.498,231.234l-0.514-108.439
					c0.171-0.001,0.343-0.001,0.514-0.001c59.488,0,108.44,48.952,108.44,108.44H244.498z"/>
				<path style="fill:#4DC7B8;stroke:#1F2F6D;stroke-miterlimit:10;" d="M244.498,231.234h108.44
					c0,59.488-48.952,108.44-108.44,108.44c-19.144,0-37.95-5.069-54.5-14.691L244.498,231.234z"/>
				<path style="fill:#FFC773;stroke:#1F2F6D;stroke-miterlimit:10;" d="M244.498,231.234h108.44c0,9.292-1.194,18.546-3.554,27.534
					c-2.359,8.988-5.864,17.635-10.429,25.729L244.498,231.234z"/>
				<g>
					<path style="fill:#1F2F6D;" d="M246.213,228.272l-43.7-25.229c-1.635-0.945-3.727-0.383-4.672,1.252
						c-0.944,1.636-0.384,3.727,1.251,4.672l43.698,25.229L246.213,228.272z"/>
				</g>
				<g>
					<path style="fill:#1F2F6D;" d="M316.242,191.792c0.817-0.472,1.098-1.519,0.625-2.336c-0.473-0.818-1.52-1.099-2.336-0.627
						l-70.886,40.928l1.71,2.961L316.242,191.792z"/>
				</g>
				<path style="fill:#1F2F6D;" d="M241.079,237.16c-3.271-1.889-4.391-6.075-2.503-9.345c1.889-3.272,6.073-4.393,9.345-2.505
					c3.273,1.889,4.393,6.074,2.504,9.345C248.537,237.926,244.351,239.049,241.079,237.16z"/>
				<path style="fill:#B53E44;" d="M266.736,217.345c0.407-0.238,0.931-0.099,1.169,0.309l0,0c0.237,0.408,0.099,0.931-0.309,1.169
					l-94.116,54.782c-0.408,0.237-0.931,0.099-1.169-0.308l0,0c-0.238-0.409-0.1-0.932,0.309-1.17L266.736,217.345z"/>
				<path style="fill:#FF6666;" d="M242.791,234.197c-1.636-0.945-2.197-3.037-1.251-4.672c0.945-1.636,3.035-2.197,4.671-1.252
					c1.636,0.944,2.197,3.035,1.252,4.671C246.517,234.58,244.426,235.141,242.791,234.197z"/>
				<g>
					<path style="fill:#1F2F6D;" d="M233.816,129.582c-0.233,0.025-0.401,0.233-0.377,0.465l0.358,3.403
						c0.024,0.233,0.233,0.401,0.465,0.377c0.233-0.025,0.401-0.233,0.377-0.465l-0.358-3.403
						C234.257,129.726,234.048,129.557,233.816,129.582z"/>
					<path style="fill:#1F2F6D;" d="M223.751,131.582c-0.049-0.229-0.273-0.375-0.502-0.326c-0.229,0.049-0.375,0.273-0.326,0.502
						l0.712,3.346c0.049,0.229,0.273,0.375,0.502,0.326c0.229-0.049,0.375-0.273,0.326-0.502L223.751,131.582z"/>
					<path style="fill:#1F2F6D;" d="M213.448,134.296c-0.073-0.223-0.311-0.344-0.534-0.272c-0.223,0.072-0.344,0.311-0.272,0.534
						l1.058,3.254c0.073,0.222,0.311,0.344,0.534,0.272c0.223-0.072,0.344-0.311,0.272-0.534L213.448,134.296z"/>
					<path style="fill:#1F2F6D;" d="M203.486,138.073c-0.095-0.214-0.345-0.31-0.559-0.215c-0.214,0.095-0.31,0.346-0.215,0.559
						l1.391,3.126c0.095,0.214,0.346,0.31,0.559,0.215c0.214-0.095,0.31-0.345,0.215-0.559L203.486,138.073z"/>
					<path style="fill:#1F2F6D;" d="M185.012,148.635c-0.137-0.189-0.402-0.231-0.592-0.094c-0.189,0.138-0.231,0.402-0.094,0.592
						l2.011,2.768c0.138,0.189,0.402,0.231,0.592,0.094c0.189-0.138,0.231-0.402,0.094-0.592L185.012,148.635z"/>
					<path style="fill:#1F2F6D;" d="M176.704,155.305c-0.157-0.174-0.424-0.188-0.598-0.031c-0.174,0.157-0.188,0.424-0.031,0.598
						l2.289,2.542c0.157,0.174,0.424,0.188,0.598,0.031c0.174-0.157,0.188-0.424,0.032-0.598L176.704,155.305z"/>
					<path style="fill:#1F2F6D;" d="M169.138,162.808c-0.174-0.156-0.441-0.142-0.598,0.031c-0.156,0.174-0.142,0.441,0.031,0.598
						l2.542,2.289c0.174,0.156,0.441,0.142,0.598-0.031c0.156-0.174,0.142-0.441-0.032-0.598L169.138,162.808z"/>
					<path style="fill:#1F2F6D;" d="M162.399,171.06c-0.189-0.137-0.454-0.096-0.592,0.094c-0.137,0.189-0.096,0.454,0.094,0.592
						l2.767,2.01c0.189,0.137,0.454,0.096,0.592-0.094c0.137-0.189,0.096-0.454-0.094-0.592L162.399,171.06z"/>
					<path style="fill:#1F2F6D;" d="M154.807,190.836l-3.125-1.391c-0.214-0.095-0.464,0.001-0.559,0.215
						c-0.095,0.214,0.001,0.464,0.215,0.559l3.125,1.391c0.214,0.095,0.464-0.001,0.559-0.215
						C155.116,191.181,155.02,190.931,154.807,190.836z"/>
					<path style="fill:#1F2F6D;" d="M147.56,200.181l3.254,1.057c0.223,0.072,0.461-0.05,0.534-0.272
						c0.072-0.223-0.049-0.461-0.272-0.534l-3.254-1.057c-0.222-0.072-0.461,0.049-0.534,0.272
						C147.216,199.87,147.337,200.108,147.56,200.181z"/>
					<path style="fill:#1F2F6D;" d="M144.845,210.483l3.347,0.711c0.229,0.049,0.454-0.097,0.502-0.326
						c0.049-0.229-0.097-0.454-0.326-0.502l-3.347-0.711c-0.229-0.049-0.454,0.097-0.502,0.326
						C144.47,210.21,144.616,210.435,144.845,210.483z"/>
					<path style="fill:#1F2F6D;" d="M143.222,221.014l3.402,0.358c0.232,0.024,0.441-0.144,0.465-0.377
						c0.024-0.232-0.144-0.441-0.377-0.465l-3.402-0.358c-0.232-0.024-0.441,0.144-0.465,0.377
						C142.82,220.781,142.989,220.989,143.222,221.014z"/>
					<path style="fill:#1F2F6D;" d="M147.089,241.469c-0.025-0.232-0.233-0.401-0.465-0.376l-3.403,0.358
						c-0.233,0.024-0.401,0.233-0.377,0.465c0.024,0.232,0.233,0.401,0.465,0.376l3.403-0.358
						C146.945,241.91,147.114,241.702,147.089,241.469z"/>
					<path style="fill:#1F2F6D;" d="M148.693,251.596c-0.049-0.229-0.273-0.375-0.502-0.327l-3.347,0.711
						c-0.229,0.049-0.375,0.274-0.326,0.502c0.048,0.229,0.273,0.375,0.502,0.327l3.347-0.711
						C148.595,252.049,148.742,251.824,148.693,251.596z"/>
					<path style="fill:#1F2F6D;" d="M151.346,261.498c-0.072-0.223-0.311-0.345-0.534-0.272l-3.254,1.058
						c-0.222,0.072-0.344,0.311-0.272,0.533c0.072,0.223,0.311,0.344,0.534,0.272l3.254-1.058
						C151.296,261.959,151.418,261.72,151.346,261.498z"/>
					<path style="fill:#1F2F6D;" d="M154.46,270.855l-3.126,1.392c-0.214,0.095-0.31,0.346-0.215,0.56
						c0.095,0.214,0.345,0.309,0.559,0.214l3.126-1.392c0.214-0.096,0.31-0.346,0.215-0.56
						C154.924,270.856,154.673,270.76,154.46,270.855z"/>
					<path style="fill:#1F2F6D;" d="M164.665,288.71l-2.767,2.01c-0.189,0.137-0.231,0.402-0.094,0.591
						c0.137,0.189,0.402,0.231,0.592,0.093l2.767-2.01c0.189-0.137,0.231-0.402,0.094-0.591
						C165.119,288.614,164.854,288.572,164.665,288.71z"/>
					<path style="fill:#1F2F6D;" d="M171.11,296.74l-2.543,2.288c-0.174,0.156-0.188,0.424-0.031,0.598
						c0.156,0.174,0.424,0.188,0.598,0.032l2.543-2.288c0.174-0.156,0.188-0.424,0.031-0.598
						C171.552,296.598,171.284,296.584,171.11,296.74z"/>
					<path style="fill:#1F2F6D;" d="M178.359,304.052l-2.29,2.541c-0.156,0.174-0.143,0.441,0.031,0.599
						c0.174,0.156,0.441,0.142,0.598-0.031l2.29-2.542c0.157-0.174,0.143-0.441-0.031-0.599
						C178.783,303.864,178.516,303.878,178.359,304.052z"/>
					<path style="fill:#1F2F6D;" d="M186.333,310.566l-2.011,2.766c-0.137,0.189-0.096,0.454,0.093,0.591
						c0.189,0.138,0.454,0.096,0.591-0.093l2.011-2.767c0.138-0.189,0.096-0.454-0.093-0.591
						C186.735,310.335,186.47,310.378,186.333,310.566z"/>
					<path style="fill:#1F2F6D;" d="M204.657,320.712c-0.214-0.095-0.464,0.001-0.559,0.214l-1.392,3.124
						c-0.095,0.214,0.001,0.464,0.215,0.56c0.214,0.095,0.464-0.001,0.559-0.214l1.392-3.125
						C204.966,321.057,204.87,320.807,204.657,320.712z"/>
					<path style="fill:#1F2F6D;" d="M214.228,324.386c-0.222-0.073-0.461,0.049-0.534,0.272l-1.058,3.253
						c-0.072,0.222,0.049,0.461,0.272,0.533c0.222,0.073,0.461-0.049,0.534-0.272l1.058-3.253
						C214.572,324.697,214.451,324.458,214.228,324.386z"/>
					<path style="fill:#1F2F6D;" d="M224.131,327.041c-0.229-0.048-0.453,0.098-0.502,0.326l-0.711,3.344
						c-0.049,0.229,0.097,0.454,0.326,0.503c0.229,0.048,0.454-0.098,0.502-0.326l0.711-3.344
						C224.506,327.315,224.359,327.09,224.131,327.041z"/>
					<path style="fill:#1F2F6D;" d="M234.256,328.645c-0.232-0.025-0.441,0.144-0.465,0.376l-0.358,3.401
						c-0.024,0.233,0.144,0.441,0.377,0.465c0.232,0.025,0.441-0.144,0.466-0.376l0.358-3.401
						C234.658,328.878,234.489,328.669,234.256,328.645z"/>
					<path style="fill:#1F2F6D;" d="M254.732,328.646c-0.233,0.024-0.402,0.233-0.377,0.465l0.357,3.401
						c0.024,0.233,0.233,0.402,0.465,0.377c0.233-0.024,0.402-0.233,0.377-0.465l-0.357-3.401
						C255.173,328.79,254.965,328.621,254.732,328.646z"/>
					<path style="fill:#1F2F6D;" d="M265.361,327.37c-0.049-0.229-0.274-0.375-0.502-0.327c-0.229,0.049-0.375,0.274-0.327,0.502
						l0.71,3.345c0.049,0.229,0.274,0.375,0.502,0.327c0.229-0.049,0.375-0.274,0.327-0.502L265.361,327.37z"/>
					<path style="fill:#1F2F6D;" d="M275.294,324.662c-0.072-0.222-0.311-0.344-0.533-0.272c-0.222,0.072-0.344,0.311-0.272,0.533
						l1.057,3.253c0.072,0.222,0.311,0.344,0.533,0.272c0.222-0.072,0.344-0.311,0.272-0.533L275.294,324.662z"/>
					<path style="fill:#1F2F6D;" d="M284.892,320.931c-0.095-0.214-0.345-0.31-0.559-0.215c-0.214,0.095-0.31,0.345-0.215,0.559
						l1.39,3.125c0.095,0.214,0.345,0.31,0.559,0.215c0.214-0.095,0.31-0.345,0.215-0.559L284.892,320.931z"/>
					<path style="fill:#1F2F6D;" d="M302.659,310.572c-0.137-0.189-0.402-0.231-0.591-0.093c-0.189,0.137-0.231,0.402-0.094,0.591
						l2.009,2.767c0.137,0.189,0.402,0.231,0.591,0.093c0.189-0.137,0.231-0.402,0.093-0.591L302.659,310.572z"/>
					<path style="fill:#1F2F6D;" d="M310.633,304.059c-0.156-0.174-0.424-0.188-0.598-0.032c-0.174,0.156-0.188,0.424-0.032,0.598
						l2.287,2.542c0.156,0.174,0.424,0.188,0.598,0.032c0.174-0.156,0.188-0.424,0.032-0.598L310.633,304.059z"/>
					<path style="fill:#1F2F6D;" d="M317.882,296.745c-0.174-0.156-0.441-0.142-0.598,0.031c-0.156,0.174-0.142,0.441,0.031,0.598
						l2.541,2.29c0.174,0.156,0.441,0.142,0.598-0.031c0.156-0.174,0.142-0.441-0.031-0.598L317.882,296.745z"/>
					<path style="fill:#1F2F6D;" d="M324.329,288.716c-0.189-0.138-0.454-0.095-0.591,0.093c-0.138,0.189-0.096,0.454,0.093,0.591
						l2.765,2.011c0.189,0.138,0.454,0.096,0.591-0.093c0.138-0.189,0.095-0.454-0.093-0.591L324.329,288.716z"/>
					<path style="fill:#1F2F6D;" d="M337.659,272.254l-3.122-1.393c-0.214-0.095-0.464,0.001-0.56,0.214
						c-0.095,0.214,0.001,0.464,0.214,0.56l3.122,1.393c0.214,0.095,0.464-0.001,0.56-0.214
						C337.968,272.6,337.872,272.35,337.659,272.254z"/>
					<path style="fill:#1F2F6D;" d="M341.435,262.292l-3.25-1.06c-0.223-0.073-0.462,0.049-0.534,0.271
						c-0.073,0.223,0.049,0.462,0.271,0.534l3.25,1.06c0.223,0.073,0.462-0.049,0.534-0.271
						C341.779,262.603,341.657,262.364,341.435,262.292z"/>
					<path style="fill:#1F2F6D;" d="M344.151,251.989l-3.344-0.714c-0.229-0.049-0.453,0.097-0.502,0.325
						c-0.049,0.228,0.097,0.453,0.326,0.502l3.344,0.714c0.228,0.049,0.453-0.097,0.502-0.325
						C344.525,252.263,344.379,252.038,344.151,251.989z"/>
					<path style="fill:#1F2F6D;" d="M345.774,241.459l-3.4-0.361c-0.233-0.025-0.441,0.143-0.466,0.376
						c-0.025,0.233,0.144,0.441,0.376,0.465l3.4,0.361c0.233,0.025,0.441-0.144,0.465-0.376
						C346.175,241.692,346.007,241.484,345.774,241.459z"/>
					<path style="fill:#1F2F6D;" d="M341.91,220.999c0.024,0.233,0.232,0.401,0.465,0.377l3.4-0.354
						c0.233-0.024,0.402-0.232,0.377-0.465c-0.024-0.233-0.232-0.401-0.465-0.377l-3.4,0.354
						C342.054,220.559,341.885,220.766,341.91,220.999z"/>
					<path style="fill:#1F2F6D;" d="M340.306,210.874c0.049,0.229,0.274,0.375,0.502,0.326l3.344-0.708
						c0.229-0.048,0.375-0.273,0.327-0.502c-0.049-0.229-0.274-0.375-0.502-0.326l-3.345,0.708
						C340.403,210.42,340.257,210.645,340.306,210.874z"/>
					<path style="fill:#1F2F6D;" d="M337.651,200.969c0.072,0.223,0.311,0.344,0.533,0.272l3.253-1.053
						c0.223-0.072,0.345-0.311,0.273-0.533c-0.072-0.222-0.311-0.344-0.533-0.272l-3.253,1.053
						C337.702,200.508,337.58,200.747,337.651,200.969z"/>
					<path style="fill:#1F2F6D;" d="M334.537,191.613l3.125-1.387c0.214-0.095,0.31-0.345,0.215-0.559
						c-0.095-0.214-0.345-0.31-0.559-0.215l-3.125,1.387c-0.214,0.095-0.31,0.345-0.215,0.559
						C334.073,191.612,334.323,191.708,334.537,191.613z"/>
					<path style="fill:#1F2F6D;" d="M326.604,171.066l-2.768,2.007c-0.19,0.137-0.232,0.402-0.095,0.591
						c0.137,0.189,0.402,0.231,0.591,0.094l2.768-2.007c0.19-0.137,0.232-0.402,0.095-0.591
						C327.058,170.971,326.792,170.929,326.604,171.066z"/>
					<path style="fill:#1F2F6D;" d="M319.864,162.813l-2.543,2.286c-0.174,0.156-0.188,0.424-0.032,0.598
						c0.156,0.174,0.424,0.188,0.598,0.032l2.543-2.286c0.174-0.156,0.188-0.424,0.032-0.598
						C320.305,162.671,320.038,162.657,319.864,162.813z"/>
					<path style="fill:#1F2F6D;" d="M312.3,155.31l-2.292,2.539c-0.157,0.174-0.143,0.441,0.031,0.598
						c0.173,0.157,0.441,0.143,0.598-0.031l2.292-2.539c0.157-0.174,0.144-0.441-0.03-0.598
						C312.725,155.123,312.457,155.137,312.3,155.31z"/>
					<path style="fill:#1F2F6D;" d="M303.991,148.639l-2.012,2.765c-0.138,0.189-0.096,0.454,0.093,0.592
						c0.189,0.138,0.454,0.096,0.591-0.093l2.012-2.765c0.138-0.189,0.096-0.454-0.093-0.592
						C304.394,148.408,304.129,148.45,303.991,148.639z"/>
					<path style="fill:#1F2F6D;" d="M286.077,137.86c-0.214-0.095-0.464,0-0.56,0.214l-1.393,3.124
						c-0.095,0.214,0.001,0.464,0.214,0.559c0.214,0.095,0.464,0,0.559-0.214l1.394-3.124
						C286.386,138.205,286.291,137.955,286.077,137.86z"/>
					<path style="fill:#1F2F6D;" d="M276.09,134.025c-0.223-0.072-0.462,0.049-0.534,0.271l-1.06,3.252
						c-0.073,0.222,0.049,0.461,0.271,0.534c0.223,0.072,0.462-0.049,0.534-0.271l1.06-3.252
						C276.434,134.336,276.313,134.098,276.09,134.025z"/>
					<path style="fill:#1F2F6D;" d="M265.754,131.255c-0.229-0.049-0.454,0.097-0.502,0.326l-0.713,3.345
						c-0.049,0.229,0.097,0.454,0.325,0.503c0.229,0.049,0.454-0.097,0.502-0.326l0.713-3.345
						C266.128,131.529,265.983,131.304,265.754,131.255z"/>
					<path style="fill:#1F2F6D;" d="M255.187,129.58c-0.233-0.024-0.441,0.144-0.465,0.377l-0.36,3.403
						c-0.025,0.232,0.144,0.441,0.376,0.466c0.233,0.024,0.441-0.144,0.465-0.377l0.36-3.402
						C255.588,129.813,255.42,129.605,255.187,129.58z"/>
				</g>
				<g>
					<path style="fill:#1F2F6D;" d="M343.075,233.832c-1.433-0.827-1.927-2.662-1.096-4.097c0.827-1.434,2.664-1.926,4.096-1.097
						c1.438,0.829,1.924,2.659,1.099,4.094C346.348,234.166,344.513,234.661,343.075,233.832z"/>
					<path style="fill:#1F2F6D;" d="M331.167,184.197c-1.656-0.001-2.999-1.345-2.998-3.002c0-1.655,1.345-3.001,2.998-2.998
						c1.663-0.001,3.001,1.342,3.002,2.998C334.169,182.85,332.827,184.196,331.167,184.197z"/>
					<path style="fill:#1F2F6D;" d="M296.037,147.164c-1.434,0.828-3.269,0.336-4.097-1.101c-0.826-1.432-0.336-3.271,1.097-4.094
						c1.44-0.832,3.269-0.338,4.1,1.094C297.964,144.498,297.473,146.333,296.037,147.164z"/>
					<path style="fill:#1F2F6D;" d="M247.097,132.66c-0.829,1.433-2.663,1.923-4.099,1.093c-1.431-0.826-1.924-2.665-1.096-4.094
						c0.829-1.44,2.661-1.927,4.098-1.102C247.432,129.385,247.927,131.221,247.097,132.66z"/>
					<path style="fill:#1F2F6D;" d="M197.462,144.567c-0.001,1.656-1.344,2.996-3.003,2.996c-1.654,0-2.999-1.345-2.997-2.996
						c-0.001-1.662,1.342-3,2.998-3.004C196.115,141.566,197.46,142.907,197.462,144.567z"/>
					<path style="fill:#1F2F6D;" d="M160.428,179.697c0.827,1.434,0.335,3.266-1.101,4.096c-1.433,0.827-3.269,0.334-4.093-1.097
						c-0.832-1.438-0.338-3.268,1.095-4.099C157.763,177.771,159.598,178.259,160.428,179.697z"/>
					<path style="fill:#1F2F6D;" d="M145.924,228.637c1.433,0.829,1.924,2.661,1.094,4.096c-0.827,1.434-2.664,1.925-4.094,1.098
						c-1.44-0.829-1.927-2.659-1.101-4.098C142.654,228.301,144.486,227.807,145.924,228.637z"/>
					<path style="fill:#1F2F6D;" d="M157.833,278.271c1.655,0.003,2.996,1.343,2.996,3.004c0,1.652-1.346,2.996-2.997,2.996
						c-1.662,0.001-3-1.341-3.003-2.998C154.83,279.616,156.173,278.274,157.833,278.271z"/>
					<path style="fill:#1F2F6D;" d="M192.962,315.302c1.435-0.828,3.267-0.336,4.097,1.103c0.827,1.432,0.333,3.269-1.098,4.094
						c-1.439,0.832-3.269,0.339-4.1-1.096C191.034,317.969,191.525,316.135,192.962,315.302z"/>
					<path style="fill:#1F2F6D;" d="M241.899,329.808c0.83-1.435,2.662-1.922,4.102-1.096c1.431,0.829,1.923,2.666,1.094,4.098
						c-0.83,1.439-2.663,1.928-4.099,1.098C241.565,333.082,241.073,331.246,241.899,329.808z"/>
					<path style="fill:#1F2F6D;" d="M291.536,317.901c0-1.657,1.342-2.995,3.002-2.998c1.655,0.002,2.998,1.346,2.998,2.999
						c0.001,1.661-1.341,3.001-2.998,3.001C292.878,320.903,291.54,319.563,291.536,317.901z"/>
					<path style="fill:#1F2F6D;" d="M328.566,282.768c-0.826-1.432-0.33-3.261,1.103-4.093c1.434-0.824,3.267-0.33,4.094,1.098
						c0.831,1.439,0.337,3.267-1.098,4.097C331.233,284.698,329.403,284.204,328.566,282.768z"/>
				</g>
			</g>
			<g>
				
					<rect x="396.644" y="317.891" transform="matrix(-1.836970e-16 1 -1 -1.836970e-16 786.1816 -88.3855)" style="fill:#A1B3FF;stroke:#6579CF;stroke-miterlimit:10;" width="81.279" height="62.013"/>
				<rect x="408.745" y="310.728" style="fill:#FFFFFF;stroke:#7A90EB;stroke-miterlimit:10;" width="57.076" height="76.341"/>
				<g>
					<g>
						
							<rect x="412.314" y="321.297" style="fill:none;stroke:#1F2F6D;stroke-linecap:round;stroke-linejoin:round;stroke-miterlimit:10;" width="10.584" height="10.584"/>
						<g>
							<rect x="426.558" y="321.161" style="fill:#DEE1EF;" width="35.695" height="2.64"/>
							<rect x="426.558" y="325.269" style="fill:#DEE1EF;" width="31.242" height="2.64"/>
							<rect x="426.558" y="329.377" style="fill:#DEE1EF;" width="26.789" height="2.64"/>
						</g>
						<g>
							<path style="fill:#4DC7B8;" d="M417.541,329.901c-0.353,0-0.689-0.161-0.91-0.44l-2.571-3.247
								c-0.398-0.503-0.313-1.233,0.19-1.631c0.503-0.397,1.233-0.313,1.631,0.19l1.523,1.923l4.996-8.425
								c0.327-0.551,1.04-0.734,1.591-0.406c0.551,0.327,0.733,1.039,0.406,1.591l-5.857,9.877
								c-0.195,0.329-0.539,0.541-0.921,0.566C417.593,329.9,417.567,329.901,417.541,329.901z"/>
						</g>
					</g>
					<g>
						
							<rect x="412.314" y="337.766" style="fill:none;stroke:#1F2F6D;stroke-linecap:round;stroke-linejoin:round;stroke-miterlimit:10;" width="10.584" height="10.584"/>
						<g>
							<rect x="426.558" y="337.63" style="fill:#DEE1EF;" width="35.695" height="2.64"/>
							<rect x="426.558" y="341.738" style="fill:#DEE1EF;" width="31.242" height="2.64"/>
							<rect x="426.558" y="345.846" style="fill:#DEE1EF;" width="26.789" height="2.64"/>
						</g>
						<g>
							<path style="fill:#4DC7B8;" d="M417.541,346.37c-0.353,0-0.689-0.161-0.91-0.44l-2.571-3.247
								c-0.398-0.503-0.313-1.233,0.19-1.631c0.503-0.397,1.233-0.313,1.631,0.19l1.523,1.923l4.996-8.425
								c0.327-0.552,1.04-0.734,1.591-0.406c0.551,0.327,0.733,1.039,0.406,1.591l-5.857,9.877c-0.195,0.329-0.539,0.54-0.921,0.566
								C417.593,346.369,417.567,346.37,417.541,346.37z"/>
						</g>
					</g>
					<g>
						
							<rect x="412.314" y="354.236" style="fill:none;stroke:#1F2F6D;stroke-linecap:round;stroke-linejoin:round;stroke-miterlimit:10;" width="10.584" height="10.584"/>
						<g>
							<rect x="426.558" y="354.099" style="fill:#DEE1EF;" width="35.695" height="2.64"/>
							<rect x="426.558" y="358.207" style="fill:#DEE1EF;" width="31.242" height="2.64"/>
							<rect x="426.558" y="362.315" style="fill:#DEE1EF;" width="26.789" height="2.64"/>
						</g>
						<g>
							<path style="fill:#4DC7B8;" d="M417.541,362.839c-0.353,0-0.689-0.161-0.91-0.44l-2.571-3.247
								c-0.398-0.503-0.313-1.233,0.19-1.631c0.503-0.397,1.233-0.313,1.631,0.19l1.523,1.923l4.996-8.425
								c0.327-0.551,1.04-0.734,1.591-0.406c0.551,0.327,0.733,1.039,0.406,1.591l-5.857,9.877c-0.195,0.329-0.539,0.54-0.921,0.566
								C417.593,362.839,417.567,362.839,417.541,362.839z"/>
						</g>
					</g>
					<g>
						
							<rect x="412.314" y="370.705" style="fill:none;stroke:#1F2F6D;stroke-linecap:round;stroke-linejoin:round;stroke-miterlimit:10;" width="10.584" height="10.584"/>
						<g>
							<rect x="426.558" y="370.569" style="fill:#DEE1EF;" width="35.695" height="2.64"/>
							<rect x="426.558" y="374.677" style="fill:#DEE1EF;" width="31.242" height="2.64"/>
							<rect x="426.558" y="378.785" style="fill:#DEE1EF;" width="26.789" height="2.64"/>
						</g>
						<g>
							<path style="fill:#4DC7B8;" d="M417.541,379.309c-0.353,0-0.689-0.161-0.91-0.44l-2.571-3.247
								c-0.398-0.503-0.313-1.233,0.19-1.631c0.503-0.397,1.233-0.313,1.631,0.19l1.523,1.923l4.996-8.425
								c0.327-0.551,1.04-0.734,1.591-0.406c0.551,0.327,0.733,1.039,0.406,1.591l-5.857,9.877c-0.195,0.329-0.539,0.54-0.921,0.566
								C417.593,379.308,417.567,379.309,417.541,379.309z"/>
						</g>
					</g>
				</g>
				<g>
					<path style="fill:#1F2F6D;" d="M431.698,299.448v7.797c0,0.65,0.527,1.177,1.177,1.177h8.819c0.65,0,1.176-0.527,1.176-1.177
						v-7.797c0-0.65-0.527-1.177-1.176-1.177h-8.819C432.224,298.272,431.698,298.798,431.698,299.448z M438.425,301.918h-2.282
						c-0.65,0-1.177-0.527-1.177-1.177l0,0c0-0.65,0.527-1.176,1.177-1.176h2.282c0.65,0,1.176,0.527,1.176,1.176l0,0
						C439.602,301.391,439.075,301.918,438.425,301.918z"/>
					<path style="fill:#1F2F6D;" d="M448.238,303.774h-21.908c-1.063,0-1.924,0.861-1.924,1.924v5.443
						c0,1.063,0.861,1.924,1.924,1.924h21.908c1.063,0,1.924-0.861,1.924-1.924v-5.443
						C450.161,304.635,449.3,303.774,448.238,303.774z"/>
				</g>
			</g>
			<g>
				<circle style="fill:#4DC7B8;stroke:#31897C;stroke-miterlimit:10;" cx="353.585" cy="367.183" r="23.179"/>
				<g>
					<g>
						<g>
							<g>
								<g>
									<path style="fill:#FCE001;" d="M346.275,366.421c0-4.098,3.372-7.408,7.492-7.308c3.867,0.094,7.021,3.239,7.125,7.106
										c0.049,1.811-0.561,3.478-1.608,4.779c-1.246,1.549-1.963,3.456-1.963,5.443v0.136h-7.472v-0.137
										c0-1.957-0.661-3.864-1.907-5.374C346.9,369.804,346.275,368.186,346.275,366.421z"/>
								</g>
							</g>
							<g>
								<g>
									<path style="fill:#FCA701;" d="M353.904,376.569h0.423V370.7c0-0.553,0.45-1.003,1.003-1.003s1.003,0.45,1.003,1.003
										c0,0.553-0.45,1.003-1.003,1.003h-0.478v0.422h0.478c0.786,0,1.425-0.639,1.425-1.425c0-0.786-0.639-1.425-1.425-1.425
										c-0.786,0-1.425,0.639-1.425,1.425V376.569z"/>
								</g>
							</g>
							<g>
								<g>
									<path style="fill:#FCA701;" d="M352.822,376.569h0.422V370.7c0-0.786-0.639-1.425-1.425-1.425
										c-0.786,0-1.425,0.639-1.425,1.425c0,0.786,0.639,1.425,1.425,1.425h0.478v-0.422h-0.478c-0.553,0-1.003-0.45-1.003-1.003
										c0-0.553,0.45-1.003,1.003-1.003c0.553,0,1.003,0.45,1.003,1.003V376.569z"/>
								</g>
							</g>
						</g>
						<g>
							<path style="fill:#1F2F6D;" d="M351.644,381.559h3.882c0.974,0,1.763-0.789,1.763-1.763v-3.251h-7.407v3.251
								C349.881,380.77,350.67,381.559,351.644,381.559z"/>
						</g>
						<g>
							<path style="fill:#1F2F6D;" d="M352.21,383.039h2.749c0.429,0,0.776-0.347,0.776-0.776v-0.809h-4.302v0.809
								C351.434,382.691,351.781,383.039,352.21,383.039z"/>
						</g>
					</g>
					<g>
						
							<line style="fill:none;stroke:#1F2F6D;stroke-linecap:round;stroke-linejoin:round;stroke-miterlimit:10;" x1="362.647" y1="369.96" x2="367.668" y2="372.591"/>
						
							<line style="fill:none;stroke:#1F2F6D;stroke-linecap:round;stroke-linejoin:round;stroke-miterlimit:10;" x1="364.221" y1="364.125" x2="369.905" y2="362.45"/>
						
							<line style="fill:none;stroke:#1F2F6D;stroke-linecap:round;stroke-linejoin:round;stroke-miterlimit:10;" x1="361.376" y1="358.95" x2="364.012" y2="354.025"/>
						
							<line style="fill:none;stroke:#1F2F6D;stroke-linecap:round;stroke-linejoin:round;stroke-miterlimit:10;" x1="353.979" y1="357.137" x2="353.979" y2="351.327"/>
						
							<line style="fill:none;stroke:#1F2F6D;stroke-linecap:round;stroke-linejoin:round;stroke-miterlimit:10;" x1="343.71" y1="369.96" x2="338.69" y2="372.591"/>
						
							<line style="fill:none;stroke:#1F2F6D;stroke-linecap:round;stroke-linejoin:round;stroke-miterlimit:10;" x1="342.949" y1="364.125" x2="337.265" y2="362.45"/>
						
							<line style="fill:none;stroke:#1F2F6D;stroke-linecap:round;stroke-linejoin:round;stroke-miterlimit:10;" x1="346.606" y1="358.95" x2="343.97" y2="354.025"/>
					</g>
				</g>
			</g>
			<g>
				
					<ellipse transform="matrix(0.9239 -0.3827 0.3827 0.9239 -64.6945 183.5652)" style="fill:#FCE001;stroke:#AD6800;stroke-miterlimit:10;" cx="429.075" cy="254.403" rx="23.179" ry="23.179"/>
				<g>
					<g>
						<path style="fill-rule:evenodd;clip-rule:evenodd;fill:#1F2F6D;" d="M429.074,241.693c-4.536,0-8.207,3.674-8.207,8.203
							c0,4.531,7.664,16.857,7.664,16.857c0.297,0.482,0.778,0.482,1.073,0c0,0,7.68-12.339,7.68-16.857
							C437.284,245.367,433.598,241.693,429.074,241.693L429.074,241.693z M429.074,244.113c2.575,0,4.66,2.081,4.66,4.658
							c0,2.577-2.085,4.669-4.66,4.669c-2.576,0-4.67-2.092-4.67-4.669C424.404,246.194,426.499,244.113,429.074,244.113
							L429.074,244.113z"/>
					</g>
				</g>
			</g>
			<g>
				
					<ellipse transform="matrix(0.7071 -0.7071 0.7071 0.7071 -106.7181 101.3332)" style="fill:#A1B3FF;stroke:#6579CF;stroke-miterlimit:10;" cx="68.961" cy="179.487" rx="23.179" ry="23.179"/>
				<g>
					<path style="fill:#FFFFFF;" d="M72.034,181.874c0.855-1.291,2.065-2.164,3.435-2.572c-1.367-0.763-2.198-2.374-1.772-4.117
						c0.317-1.296,1.375-2.341,2.674-2.645c2.399-0.561,4.542,1.255,4.542,3.562c0,1.381-0.768,2.585-1.899,3.209
						c2.553,0.785,4.437,3.222,4.437,6.053v1.941c0,0.709-0.575,1.284-1.284,1.284H72.33c-0.709,0-1.284-0.575-1.284-1.283v-1.891
						C71.047,184.166,71.345,182.914,72.034,181.874z"/>
					<g>
						<path style="fill:#FFFFFF;" d="M54.408,181.874c0.855-1.291,2.065-2.164,3.435-2.572c-1.367-0.763-2.198-2.374-1.772-4.117
							c0.317-1.296,1.375-2.341,2.675-2.645c2.399-0.561,4.542,1.255,4.542,3.562c0,1.381-0.768,2.585-1.899,3.209
							c2.553,0.785,4.437,3.222,4.437,6.053v1.941c0,0.709-0.575,1.284-1.284,1.284h-9.837c-0.709,0-1.283-0.575-1.283-1.283v-1.891
							C53.421,184.166,53.719,182.914,54.408,181.874z"/>
					</g>
					<path style="fill:#1F2F6D;" d="M63.262,178.877c0.909-0.884,1.993-1.511,3.171-1.862c-1.399-0.781-2.348-2.275-2.348-3.988
						c0-2.518,2.048-4.567,4.567-4.567c2.518,0,4.567,2.048,4.567,4.567c0,1.721-0.957,3.221-2.367,3.999
						c3.182,0.979,5.529,4.015,5.529,7.543v2.42c0,0.882-0.718,1.6-1.6,1.6H62.521c-0.882,0-1.6-0.718-1.6-1.6v-2.571
						C60.922,182.313,61.752,180.345,63.262,178.877z"/>
				</g>
			</g>
			<g>
				
					<ellipse transform="matrix(0.2298 -0.9732 0.9732 0.2298 46.1243 241.4868)" style="fill:#FF6666;stroke:#B53E44;stroke-miterlimit:10;" cx="175.628" cy="91.603" rx="23.179" ry="23.179"/>
				<g>
					<path style="fill-rule:evenodd;clip-rule:evenodd;fill:#FCE001;" d="M166.103,97.468h1.641v-7.847
						c0-5.049,3.359-7.761,6.962-8.152v-2.833c0-0.5,0.418-0.907,0.926-0.907c0.502,0,0.904,0.407,0.904,0.907v2.833
						c3.614,0.391,6.964,3.114,6.964,8.152v7.847h1.644c0.279,0,0.524,0.233,0.524,0.529v2.783c0,0.296-0.246,0.528-0.524,0.528
						h-5.349c0,2.302-1.866,4.168-4.168,4.168c-2.302,0-4.169-1.866-4.169-4.168h-5.345c-0.291,0-0.527-0.232-0.527-0.528v-2.783
						C165.578,97.701,165.823,97.468,166.103,97.468z"/>
				</g>
			</g>
			<g>
				<circle style="fill:#4DC7B8;stroke:#31897C;stroke-miterlimit:10;" cx="125.709" cy="148.465" r="12.184"/>
				<path style="fill-rule:evenodd;clip-rule:evenodd;fill:#FFFFFF;" d="M123.891,153.945l-4.432-2.856
					c-0.494-0.297-0.59-0.89-0.294-1.381l0.394-0.591c0.294-0.393,0.889-0.591,1.283-0.295l3.352,2.167l5.907-7.783
					c0.394-0.493,0.885-0.493,1.382-0.196l0.591,0.395c0.392,0.393,0.49,0.983,0.096,1.378l-6.798,8.966
					c-0.294,0.294-0.688,0.491-1.081,0.294C124.193,154.043,124.091,154.043,123.891,153.945L123.891,153.945z"/>
			</g>
			<g>
				
					<ellipse transform="matrix(0.9239 -0.3827 0.3827 0.9239 -85.851 164.9405)" style="fill:#EE5A30;stroke:#B53E44;stroke-miterlimit:10;" cx="371.681" cy="298.272" rx="15.101" ry="15.101"/>
				<polygon style="fill:#FFFFFF;" points="376.787,305.722 371.621,300.552 366.453,305.606 364.337,303.492 369.504,298.322 
					364.337,293.266 366.572,291.034 371.621,296.204 376.787,291.034 378.909,293.152 373.851,298.322 379.025,303.492 				"/>
			</g>
			<g>
				<path style="fill:#A1B3FF;stroke:#6579CF;stroke-miterlimit:10;" d="M114.776,123.41H31.518c-3.053,0-5.527-2.475-5.527-5.527
					v-57.12c0-3.053,2.475-5.527,5.527-5.527h83.257c3.053,0,5.527,2.475,5.527,5.527v57.12
					C120.303,120.935,117.828,123.41,114.776,123.41z"/>
				<g>
					<rect x="30.97" y="72.119" style="fill:#FFFFFF;stroke:#6579CF;stroke-miterlimit:10;" width="10.313" height="10.313"/>
					<rect x="43.31" y="72.119" style="fill:#FFFFFF;stroke:#6579CF;stroke-miterlimit:10;" width="10.313" height="10.313"/>
					<rect x="55.65" y="72.119" style="fill:#FFFFFF;stroke:#6579CF;stroke-miterlimit:10;" width="10.313" height="10.313"/>
					<rect x="67.99" y="72.119" style="fill:#FFFFFF;stroke:#6579CF;stroke-miterlimit:10;" width="10.313" height="10.313"/>
					<rect x="80.33" y="72.119" style="fill:#FFFFFF;stroke:#6579CF;stroke-miterlimit:10;" width="10.313" height="10.313"/>
					<rect x="92.671" y="72.119" style="fill:#FFFFFF;stroke:#6579CF;stroke-miterlimit:10;" width="10.313" height="10.313"/>
					<rect x="105.011" y="72.119" style="fill:#FF6666;stroke:#B53E44;stroke-miterlimit:10;" width="10.313" height="10.313"/>
					<rect x="30.97" y="66.087" style="fill:#FCE001;stroke:#F2A446;stroke-miterlimit:10;" width="10.313" height="4.06"/>
					<rect x="43.31" y="66.087" style="fill:#FCE001;stroke:#F2A446;stroke-miterlimit:10;" width="10.313" height="4.06"/>
					<rect x="55.65" y="66.087" style="fill:#FCE001;stroke:#F2A446;stroke-miterlimit:10;" width="10.313" height="4.06"/>
					<rect x="67.99" y="66.087" style="fill:#FCE001;stroke:#F2A446;stroke-miterlimit:10;" width="10.313" height="4.06"/>
					<rect x="80.33" y="66.087" style="fill:#FCE001;stroke:#F2A446;stroke-miterlimit:10;" width="10.313" height="4.06"/>
					<rect x="92.671" y="66.087" style="fill:#FCE001;stroke:#F2A446;stroke-miterlimit:10;" width="10.313" height="4.06"/>
					<rect x="105.011" y="66.087" style="fill:#FCE001;stroke:#F2A446;stroke-miterlimit:10;" width="10.313" height="4.06"/>
					<rect x="30.97" y="84.248" style="fill:#FFFFFF;stroke:#6579CF;stroke-miterlimit:10;" width="10.313" height="10.313"/>
					<rect x="43.31" y="84.248" style="fill:#FFFFFF;stroke:#6579CF;stroke-miterlimit:10;" width="10.313" height="10.313"/>
					<rect x="55.65" y="84.248" style="fill:#FFFFFF;stroke:#6579CF;stroke-miterlimit:10;" width="10.313" height="10.313"/>
					<rect x="67.99" y="84.248" style="fill:#FFFFFF;stroke:#6579CF;stroke-miterlimit:10;" width="10.313" height="10.313"/>
					<rect x="80.33" y="84.248" style="fill:#FFFFFF;stroke:#6579CF;stroke-miterlimit:10;" width="10.313" height="10.313"/>
					<rect x="92.671" y="84.248" style="fill:#FFFFFF;stroke:#6579CF;stroke-miterlimit:10;" width="10.313" height="10.313"/>
					<rect x="105.011" y="84.248" style="fill:#FF6666;stroke:#B53E44;stroke-miterlimit:10;" width="10.313" height="10.313"/>
					<rect x="30.97" y="96.377" style="fill:#FFFFFF;stroke:#6579CF;stroke-miterlimit:10;" width="10.313" height="10.313"/>
					<rect x="43.31" y="96.377" style="fill:#FFFFFF;stroke:#6579CF;stroke-miterlimit:10;" width="10.313" height="10.313"/>
					<rect x="55.65" y="96.377" style="fill:#FFFFFF;stroke:#6579CF;stroke-miterlimit:10;" width="10.313" height="10.313"/>
					<rect x="67.99" y="96.377" style="fill:#FFFFFF;stroke:#6579CF;stroke-miterlimit:10;" width="10.313" height="10.313"/>
					<rect x="80.33" y="96.377" style="fill:#FFFFFF;stroke:#6579CF;stroke-miterlimit:10;" width="10.313" height="10.313"/>
					<rect x="92.671" y="96.377" style="fill:#FFFFFF;stroke:#6579CF;stroke-miterlimit:10;" width="10.313" height="10.313"/>
					<rect x="105.011" y="96.377" style="fill:#FF6666;stroke:#B53E44;stroke-miterlimit:10;" width="10.313" height="10.313"/>
					<rect x="30.97" y="108.507" style="fill:#FFFFFF;stroke:#6579CF;stroke-miterlimit:10;" width="10.313" height="10.313"/>
					<rect x="43.31" y="108.507" style="fill:#FFFFFF;stroke:#6579CF;stroke-miterlimit:10;" width="10.313" height="10.313"/>
					<rect x="55.65" y="108.507" style="fill:#FFFFFF;stroke:#6579CF;stroke-miterlimit:10;" width="10.313" height="10.313"/>
					<rect x="67.99" y="108.507" style="fill:#FFFFFF;stroke:#6579CF;stroke-miterlimit:10;" width="10.313" height="10.313"/>
					<rect x="80.33" y="108.507" style="fill:#FFFFFF;stroke:#6579CF;stroke-miterlimit:10;" width="10.313" height="10.313"/>
					<rect x="92.671" y="108.507" style="fill:#FFFFFF;stroke:#6579CF;stroke-miterlimit:10;" width="10.313" height="10.313"/>
					<rect x="105.011" y="108.507" style="fill:#FF6666;stroke:#B53E44;stroke-miterlimit:10;" width="10.313" height="10.313"/>
				</g>
				<polygon style="fill:#FF6666;" points="37.787,79.663 36.107,77.982 34.426,79.626 33.738,78.938 35.419,77.257 33.738,75.613 
					34.465,74.887 36.107,76.568 37.787,74.887 38.477,75.576 36.832,77.257 38.515,78.938 				"/>
				<polygon style="fill:#FF6666;" points="74.807,91.809 73.127,90.128 71.447,91.771 70.759,91.084 72.439,89.402 70.759,87.758 
					71.485,87.033 73.127,88.714 74.807,87.033 75.497,87.721 73.853,89.402 75.535,91.084 				"/>
				<polygon style="fill:#FF6666;" points="50.127,103.922 48.447,102.241 46.766,103.884 46.078,103.197 47.759,101.516 
					46.078,99.872 46.805,99.146 48.447,100.827 50.127,99.146 50.817,99.835 49.172,101.516 50.855,103.197 				"/>
				<g>
					<path style="fill:#266193;stroke:#1F2F6D;stroke-miterlimit:10;" d="M35.612,60.543h-0.491c-0.989,0-1.79-0.802-1.79-1.79
						v-6.307c0-0.989,0.801-1.79,1.79-1.79h0.491c0.989,0,1.79,0.801,1.79,1.79v6.307C37.402,59.741,36.6,60.543,35.612,60.543z"/>
					<path style="fill:#266193;stroke:#1F2F6D;stroke-miterlimit:10;" d="M43.168,60.543h-0.491c-0.989,0-1.79-0.802-1.79-1.79
						v-6.307c0-0.989,0.802-1.79,1.79-1.79h0.491c0.989,0,1.79,0.801,1.79,1.79v6.307C44.958,59.741,44.157,60.543,43.168,60.543z"
						/>
					<path style="fill:#266193;stroke:#1F2F6D;stroke-miterlimit:10;" d="M50.724,60.543h-0.491c-0.989,0-1.79-0.802-1.79-1.79
						v-6.307c0-0.989,0.802-1.79,1.79-1.79h0.491c0.989,0,1.79,0.801,1.79,1.79v6.307C52.514,59.741,51.713,60.543,50.724,60.543z"
						/>
					<path style="fill:#266193;stroke:#1F2F6D;stroke-miterlimit:10;" d="M58.28,60.543h-0.491c-0.989,0-1.79-0.802-1.79-1.79
						v-6.307c0-0.989,0.802-1.79,1.79-1.79h0.491c0.989,0,1.79,0.801,1.79,1.79v6.307C60.07,59.741,59.269,60.543,58.28,60.543z"/>
					<path style="fill:#266193;stroke:#1F2F6D;stroke-miterlimit:10;" d="M65.836,60.543h-0.491c-0.989,0-1.79-0.802-1.79-1.79
						v-6.307c0-0.989,0.801-1.79,1.79-1.79h0.491c0.989,0,1.79,0.801,1.79,1.79v6.307C67.626,59.741,66.825,60.543,65.836,60.543z"
						/>
					<path style="fill:#266193;stroke:#1F2F6D;stroke-miterlimit:10;" d="M73.392,60.543h-0.491c-0.989,0-1.79-0.802-1.79-1.79
						v-6.307c0-0.989,0.801-1.79,1.79-1.79h0.491c0.989,0,1.79,0.801,1.79,1.79v6.307C75.183,59.741,74.381,60.543,73.392,60.543z"
						/>
					<path style="fill:#266193;stroke:#1F2F6D;stroke-miterlimit:10;" d="M80.948,60.543h-0.491c-0.989,0-1.79-0.802-1.79-1.79
						v-6.307c0-0.989,0.802-1.79,1.79-1.79h0.491c0.989,0,1.79,0.801,1.79,1.79v6.307C82.739,59.741,81.937,60.543,80.948,60.543z"
						/>
					<path style="fill:#266193;stroke:#1F2F6D;stroke-miterlimit:10;" d="M88.505,60.543h-0.491c-0.989,0-1.79-0.802-1.79-1.79
						v-6.307c0-0.989,0.802-1.79,1.79-1.79h0.491c0.989,0,1.79,0.801,1.79,1.79v6.307C90.295,59.741,89.493,60.543,88.505,60.543z"
						/>
					<path style="fill:#266193;stroke:#1F2F6D;stroke-miterlimit:10;" d="M96.061,60.543H95.57c-0.989,0-1.79-0.802-1.79-1.79
						v-6.307c0-0.989,0.802-1.79,1.79-1.79h0.491c0.989,0,1.79,0.801,1.79,1.79v6.307C97.851,59.741,97.049,60.543,96.061,60.543z"
						/>
					<path style="fill:#266193;stroke:#1F2F6D;stroke-miterlimit:10;" d="M103.617,60.543h-0.491c-0.989,0-1.79-0.802-1.79-1.79
						v-6.307c0-0.989,0.802-1.79,1.79-1.79h0.491c0.989,0,1.79,0.801,1.79,1.79v6.307C105.407,59.741,104.605,60.543,103.617,60.543
						z"/>
					<path style="fill:#266193;stroke:#1F2F6D;stroke-miterlimit:10;" d="M111.173,60.543h-0.491c-0.989,0-1.79-0.802-1.79-1.79
						v-6.307c0-0.989,0.801-1.79,1.79-1.79h0.491c0.989,0,1.79,0.801,1.79,1.79v6.307C112.963,59.741,112.162,60.543,111.173,60.543
						z"/>
				</g>
			</g>
		</g>
	</g>
</g>
<g id="DESIGNED_BY_FREEPIK">
	<g>
		<g id="XMLID_226_">
			<g id="XMLID_245_">
				<path id="XMLID_253_" style="fill:#A5B7C6;" d="M260.103,465.465c-0.432,0.443-0.803,0.932-1.108,1.453l-0.465-0.241
					c-0.068-0.297-0.35-0.502-0.66-0.466c-0.33,0.039-0.566,0.339-0.529,0.67c0.039,0.331,0.34,0.567,0.67,0.528
					c0.066-0.007,0.127-0.025,0.184-0.052l0.451,0.234c-0.25,0.554-0.432,1.139-0.539,1.743l0.748,0.132
					c0.228-1.306,0.85-2.507,1.791-3.473L260.103,465.465z"/>
				<path id="XMLID_252_" style="fill:#A5B7C6;" d="M265.592,463.163c-0.172,0-0.342,0.006-0.51,0.017l-0.074-0.626
					c0.188-0.149,0.297-0.389,0.266-0.645c-0.045-0.393-0.402-0.674-0.795-0.628c-0.393,0.046-0.674,0.402-0.627,0.796
					c0.029,0.254,0.189,0.461,0.404,0.564l0.072,0.624c-0.713,0.116-1.402,0.332-2.059,0.646l0.326,0.685
					c0.934-0.447,1.941-0.674,2.996-0.674c0.496,0,0.992,0.053,1.475,0.158l0.16-0.741
					C266.691,463.222,266.142,463.163,265.592,463.163z"/>
				<path id="XMLID_251_" style="fill:#A5B7C6;" d="M272.193,465.71c0.332-0.04,0.566-0.341,0.525-0.672
					c-0.039-0.331-0.34-0.566-0.672-0.525c-0.309,0.038-0.535,0.304-0.529,0.608l-0.416,0.363c-0.418-0.43-0.891-0.813-1.408-1.14
					l-0.404,0.642c1.135,0.715,2.021,1.727,2.564,2.925l0.689-0.313c-0.25-0.554-0.566-1.071-0.941-1.545l0.402-0.351
					C272.064,465.715,272.129,465.719,272.193,465.71z"/>
				<path id="XMLID_250_" style="fill:#A5B7C6;" d="M265.045,473.371c-0.387,0.023-0.776,0.035-1.158,0.035
					c-0.879,0-1.732-0.061-2.479-0.18c-0.391-0.062-0.846-0.154-1.27-0.292c1.047,1.861,3.068,3.125,5.389,3.125
					c2.855,0,5.262-1.916,5.949-4.503c-0.682,0.449-1.506,0.825-2.459,1.122C267.838,473.047,266.463,473.286,265.045,473.371z"/>
				<path id="XMLID_246_" style="fill:#A5B7C6;" d="M265.592,464.68c-3.352,0-6.08,2.666-6.08,5.943
					c0,0.425,0.047,0.849,0.137,1.261c0.674,0.483,2.707,0.891,5.348,0.731c2.881-0.174,5.297-0.958,6.672-2.159
					c-0.004-0.194-0.02-0.39-0.045-0.581C271.244,466.913,268.65,464.68,265.592,464.68z M263.431,471.194
					c-1.019,0-1.85-0.83-1.85-1.85c0-1.021,0.83-1.851,1.85-1.851c1.02,0,1.85,0.83,1.85,1.851
					C265.281,470.364,264.451,471.194,263.431,471.194z M268.17,470.286c-0.75,0-1.361-0.61-1.361-1.36s0.611-1.36,1.361-1.36
					s1.359,0.61,1.359,1.36S268.92,470.286,268.17,470.286z"/>
			</g>
			<path id="XMLID_243_" style="fill:#A5B7C6;" d="M281.595,466.547c-0.295-0.116-0.807-0.31-1.383-0.238
				c-0.551,0.069-0.844,0.341-0.844,1.007v0.866h2.229v1.717h-2.229v5.455h-1.932v-5.455h-1.34v-1.717h1.34v-0.889
				c0-1.68,0.895-2.782,2.568-2.782c0.643,0,1.156,0.121,1.59,0.308V466.547z"/>
			<path id="XMLID_241_" style="fill:#A5B7C6;" d="M286.297,469.878c-0.176-0.029-0.357-0.046-0.525-0.046
				c-0.897,0-1.51,0.548-1.51,1.613v3.908h-1.932v-7.172h1.873v0.784c0.451-0.673,1.139-0.977,2.02-0.977
				c0.414,0,0.848,0.128,1.094,0.337L286.297,469.878z"/>
			<path id="XMLID_238_" style="fill:#A5B7C6;" d="M293.965,471.757c0,0.222-0.016,0.488-0.037,0.651h-5.084
				c0.207,1.036,0.932,1.487,1.842,1.487c0.623,0,1.295-0.252,1.814-0.689l1.133,1.243c-0.814,0.748-1.852,1.089-3.059,1.089
				c-2.197,0-3.723-1.496-3.723-3.753c0-2.258,1.48-3.797,3.627-3.797C292.543,467.989,293.957,469.522,293.965,471.757z
				 M288.849,471.091h3.176c-0.178-0.918-0.732-1.436-1.56-1.436C289.552,469.654,289.021,470.202,288.849,471.091z"/>
			<path id="XMLID_235_" style="fill:#A5B7C6;" d="M301.619,471.757c0,0.222-0.016,0.488-0.037,0.651h-5.086
				c0.207,1.036,0.934,1.487,1.844,1.487c0.621,0,1.295-0.252,1.813-0.689l1.133,1.243c-0.815,0.748-1.85,1.089-3.057,1.089
				c-2.199,0-3.723-1.496-3.723-3.753c0-2.258,1.48-3.797,3.627-3.797C300.197,467.989,301.611,469.522,301.619,471.757z
				 M296.504,471.091h3.176c-0.178-0.918-0.734-1.436-1.563-1.436C297.207,469.654,296.673,470.202,296.504,471.091z"/>
			<path id="XMLID_232_" style="fill:#A5B7C6;" d="M309.963,471.764c0,2.154-1.494,3.775-3.471,3.775
				c-0.961,0-1.643-0.378-2.109-0.933v3.708h-1.924v-10.133h1.887v0.792c0.467-0.585,1.154-0.984,2.139-0.984
				C308.469,467.989,309.963,469.61,309.963,471.764z M304.287,471.764c0,1.133,0.748,1.977,1.842,1.977
				c1.141,0,1.852-0.881,1.852-1.977c0-1.095-0.711-1.976-1.852-1.976C305.035,469.788,304.287,470.632,304.287,471.764z"/>
			<path id="XMLID_229_" style="fill:#A5B7C6;" d="M313.066,465.835c0,0.696-0.539,1.23-1.234,1.23c-0.697,0-1.228-0.533-1.228-1.23
				c0-0.695,0.531-1.243,1.228-1.243C312.527,464.592,313.066,465.14,313.066,465.835z M312.808,475.353h-1.932v-7.172h1.932
				V475.353z"/>
			<path id="XMLID_227_" style="fill:#A5B7C6;" d="M316.031,470.735l2.703-2.554h2.367l-3.479,3.375l3.502,3.797h-2.377
				l-2.717-2.901v2.901h-1.932v-10.658h1.932V470.735z"/>
		</g>
		<g>
			<path style="fill:#A5B7C6;" d="M184.412,475.289v-1.055c-0.527,0.718-1.391,1.23-2.387,1.23c-1.846,0-3.149-1.406-3.149-3.706
				c0-2.256,1.289-3.721,3.149-3.721c0.952,0,1.816,0.469,2.387,1.245v-3.765h1.099v9.771H184.412z M184.412,473.37v-3.208
				c-0.395-0.615-1.245-1.143-2.124-1.143c-1.421,0-2.27,1.172-2.27,2.739c0,1.567,0.85,2.725,2.27,2.725
				C183.167,474.483,184.017,473.985,184.412,473.37z"/>
			<path style="fill:#A5B7C6;" d="M186.931,471.744c0-2.051,1.465-3.706,3.486-3.706c2.139,0,3.398,1.67,3.398,3.794v0.278h-5.727
				c0.088,1.333,1.026,2.446,2.549,2.446c0.806,0,1.626-0.322,2.182-0.894l0.527,0.718c-0.703,0.703-1.655,1.084-2.812,1.084
				C188.44,475.465,186.931,473.956,186.931,471.744z M190.403,468.946c-1.509,0-2.256,1.274-2.315,2.358h4.644
				C192.717,470.25,192.014,468.946,190.403,468.946z"/>
			<path style="fill:#A5B7C6;" d="M194.607,474.352l0.571-0.791c0.469,0.542,1.362,1.011,2.329,1.011c1.084,0,1.67-0.513,1.67-1.216
				c0-1.714-4.38-0.659-4.38-3.281c0-1.099,0.952-2.036,2.636-2.036c1.202,0,2.051,0.454,2.623,1.025l-0.513,0.762
				c-0.424-0.513-1.201-0.894-2.109-0.894c-0.966,0-1.567,0.483-1.567,1.113c0,1.553,4.379,0.527,4.379,3.281
				c0,1.186-0.952,2.139-2.783,2.139C196.306,475.465,195.324,475.113,194.607,474.352z"/>
			<path style="fill:#A5B7C6;" d="M201.477,466.471c0-0.41,0.337-0.747,0.732-0.747c0.41,0,0.747,0.337,0.747,0.747
				c0,0.41-0.337,0.732-0.747,0.732C201.814,467.203,201.477,466.881,201.477,466.471z M201.667,475.289v-7.075h1.099v7.075H201.667
				z"/>
			<path style="fill:#A5B7C6;" d="M204.582,477.105l0.556-0.82c0.586,0.703,1.289,0.967,2.3,0.967c1.172,0,2.27-0.571,2.27-2.124
				v-1.011c-0.513,0.718-1.377,1.26-2.373,1.26c-1.846,0-3.149-1.377-3.149-3.662c0-2.271,1.289-3.677,3.149-3.677
				c0.952,0,1.802,0.469,2.373,1.245v-1.069h1.099v6.87c0,2.344-1.641,3.076-3.369,3.076
				C206.236,478.16,205.416,477.925,204.582,477.105z M209.708,473.253v-3.091c-0.381-0.615-1.23-1.143-2.109-1.143
				c-1.421,0-2.27,1.128-2.27,2.695c0,1.553,0.849,2.695,2.27,2.695C208.478,474.41,209.327,473.868,209.708,473.253z"/>
			<path style="fill:#A5B7C6;" d="M217.413,475.289v-4.629c0-1.245-0.63-1.641-1.582-1.641c-0.864,0-1.685,0.527-2.094,1.099v5.171
				h-1.099v-7.075h1.099v1.025c0.498-0.586,1.465-1.201,2.519-1.201c1.48,0,2.256,0.747,2.256,2.285v4.966H217.413z"/>
			<path style="fill:#A5B7C6;" d="M219.932,471.744c0-2.051,1.465-3.706,3.486-3.706c2.139,0,3.398,1.67,3.398,3.794v0.278h-5.727
				c0.088,1.333,1.025,2.446,2.548,2.446c0.806,0,1.626-0.322,2.183-0.894l0.527,0.718c-0.703,0.703-1.655,1.084-2.813,1.084
				C221.441,475.465,219.932,473.956,219.932,471.744z M223.404,468.946c-1.509,0-2.256,1.274-2.314,2.358h4.643
				C225.718,470.25,225.015,468.946,223.404,468.946z"/>
			<path style="fill:#A5B7C6;" d="M233.35,475.289v-1.055c-0.527,0.718-1.392,1.23-2.388,1.23c-1.845,0-3.149-1.406-3.149-3.706
				c0-2.256,1.289-3.721,3.149-3.721c0.952,0,1.817,0.469,2.388,1.245v-3.765h1.098v9.771H233.35z M233.35,473.37v-3.208
				c-0.396-0.615-1.245-1.143-2.124-1.143c-1.421,0-2.27,1.172-2.27,2.739c0,1.567,0.85,2.725,2.27,2.725
				C232.105,474.483,232.954,473.985,233.35,473.37z"/>
			<path style="fill:#A5B7C6;" d="M239.692,475.289v-9.771h1.099v3.765c0.571-0.776,1.421-1.245,2.388-1.245
				c1.845,0,3.149,1.465,3.149,3.721c0,2.3-1.304,3.706-3.149,3.706c-0.996,0-1.86-0.513-2.388-1.23v1.055H239.692z M242.9,474.483
				c1.436,0,2.285-1.157,2.285-2.725c0-1.567-0.85-2.739-2.285-2.739c-0.864,0-1.728,0.527-2.109,1.143v3.208
				C241.171,473.985,242.035,474.483,242.9,474.483z"/>
			<path style="fill:#A5B7C6;" d="M247.528,477.061c0.161,0.073,0.425,0.117,0.601,0.117c0.483,0,0.806-0.161,1.055-0.747
				l0.469-1.069l-2.959-7.148h1.186l2.359,5.801l2.344-5.801h1.201l-3.545,8.511c-0.425,1.024-1.143,1.421-2.08,1.436
				c-0.235,0-0.601-0.044-0.806-0.104L247.528,477.061z"/>
		</g>
	</g>
</g>
</svg>
